<svg width="1920" height="776" viewBox="0 0 1920 776" fill="none" xmlns="http://www.w3.org/2000/svg">
<rect x="-373" y="-428" width="2293" height="1194" rx="381" fill="#DE0606"/>
<path d="M-525.633 496.323C-518.939 416.516 -465.395 348.348 -389.446 322.939L-66.9073 215.035C-31.6636 203.244 6.16351 201.481 42.3512 209.941L501.883 317.383C513.618 320.127 525.577 321.807 537.614 322.403L1203.42 355.372C1310.16 360.658 1394 448.749 1394 555.627V562.5C1394 673.233 1304.23 763 1193.5 763H-329.98C-447.323 763 -539.585 662.675 -529.778 545.742L-525.633 496.323Z" fill="#D20000"/>
<path d="M1917 328C1928 591.5 1826 741.5 1306.5 763.5C782.934 763.5 -22 151.58 -22 -97.5C-22 -346.58 445.434 -123 969 -123C1492.57 -123 1917 78.9194 1917 328Z" fill="#BF0000"/>
</svg>
